<svg xmlns="http://www.w3.org/2000/svg" width="1220" height="720" viewBox="0 0 1220 720">
<rect width="100%" height="100%" fill="#fbfbf8"/>
<text x="86" y="42" font-family="Arial, sans-serif" font-size="26" font-weight="700" fill="#242424">Average Response Time</text>
<text x="86" y="70" font-family="Arial, sans-serif" font-size="14" fill="#666">lower is better</text>
<line x1="86" y1="594.0" x2="1184" y2="594.0" stroke="#e1e1dc" stroke-width="1"/>
<text x="76" y="598.0" text-anchor="end" font-family="Arial, sans-serif" font-size="12" fill="#666">0.00</text>
<line x1="86" y1="494.4" x2="1184" y2="494.4" stroke="#e1e1dc" stroke-width="1"/>
<text x="76" y="498.4" text-anchor="end" font-family="Arial, sans-serif" font-size="12" fill="#666">10.96</text>
<line x1="86" y1="394.8" x2="1184" y2="394.8" stroke="#e1e1dc" stroke-width="1"/>
<text x="76" y="398.8" text-anchor="end" font-family="Arial, sans-serif" font-size="12" fill="#666">21.93</text>
<line x1="86" y1="295.2" x2="1184" y2="295.2" stroke="#e1e1dc" stroke-width="1"/>
<text x="76" y="299.2" text-anchor="end" font-family="Arial, sans-serif" font-size="12" fill="#666">32.89</text>
<line x1="86" y1="195.6" x2="1184" y2="195.6" stroke="#e1e1dc" stroke-width="1"/>
<text x="76" y="199.6" text-anchor="end" font-family="Arial, sans-serif" font-size="12" fill="#666">43.85</text>
<line x1="86" y1="96.0" x2="1184" y2="96.0" stroke="#e1e1dc" stroke-width="1"/>
<text x="76" y="100.0" text-anchor="end" font-family="Arial, sans-serif" font-size="12" fill="#666">54.82</text>
<line x1="86" y1="96" x2="86" y2="594" stroke="#333" stroke-width="1.2"/>
<line x1="86" y1="594" x2="1184" y2="594" stroke="#333" stroke-width="1.2"/>
<text x="134.6" y="626" text-anchor="middle" font-family="Arial, sans-serif" font-size="13" fill="#333">cpu_mixed</text>
<rect x="86.0" y="365.4" width="8.6" height="228.6" rx="3" fill="#4C78A8">
<title>cpu_mixed fcfs: 25.167</title>
</rect>
<rect x="98.6" y="392.6" width="8.6" height="201.4" rx="3" fill="#F58518">
<title>cpu_mixed sjf: 22.167</title>
</rect>
<rect x="111.3" y="557.7" width="8.6" height="36.3" rx="3" fill="#54A24B">
<title>cpu_mixed srtf: 4.000</title>
</rect>
<rect x="123.9" y="521.3" width="8.6" height="72.7" rx="3" fill="#E45756">
<title>cpu_mixed rr: 8.000</title>
</rect>
<rect x="136.6" y="530.4" width="8.6" height="63.6" rx="3" fill="#72B7B2">
<title>cpu_mixed priority: 7.000</title>
</rect>
<rect x="149.2" y="539.5" width="8.6" height="54.5" rx="3" fill="#B279A2">
<title>cpu_mixed mlfq: 6.000</title>
</rect>
<rect x="161.8" y="542.5" width="8.6" height="51.5" rx="3" fill="#FF9DA6">
<title>cpu_mixed aamlfq: 5.667</title>
</rect>
<rect x="174.5" y="562.2" width="8.6" height="31.8" rx="3" fill="#9D755D">
<title>cpu_mixed qlearn: 3.500</title>
</rect>
<text x="259.7" y="626" text-anchor="middle" font-family="Arial, sans-serif" font-size="13" fill="#333">deadline_pressure</text>
<rect x="211.1" y="416.8" width="8.6" height="177.2" rx="3" fill="#4C78A8">
<title>deadline_pressure fcfs: 19.500</title>
</rect>
<rect x="223.8" y="475.9" width="8.6" height="118.1" rx="3" fill="#F58518">
<title>deadline_pressure sjf: 13.000</title>
</rect>
<rect x="236.4" y="515.3" width="8.6" height="78.7" rx="3" fill="#54A24B">
<title>deadline_pressure srtf: 8.667</title>
</rect>
<rect x="249.0" y="518.3" width="8.6" height="75.7" rx="3" fill="#E45756">
<title>deadline_pressure rr: 8.333</title>
</rect>
<rect x="261.7" y="465.3" width="8.6" height="128.7" rx="3" fill="#72B7B2">
<title>deadline_pressure priority: 14.167</title>
</rect>
<rect x="274.3" y="557.7" width="8.6" height="36.3" rx="3" fill="#B279A2">
<title>deadline_pressure mlfq: 4.000</title>
</rect>
<rect x="286.9" y="474.4" width="8.6" height="119.6" rx="3" fill="#FF9DA6">
<title>deadline_pressure aamlfq: 13.167</title>
</rect>
<rect x="299.6" y="512.2" width="8.6" height="81.8" rx="3" fill="#9D755D">
<title>deadline_pressure qlearn: 9.000</title>
</rect>
<text x="384.8" y="626" text-anchor="middle" font-family="Arial, sans-serif" font-size="13" fill="#333">deadline_tight</text>
<rect x="336.2" y="277.2" width="8.6" height="316.8" rx="3" fill="#4C78A8">
<title>deadline_tight fcfs: 34.875</title>
</rect>
<rect x="348.9" y="452.0" width="8.6" height="142.0" rx="3" fill="#F58518">
<title>deadline_tight sjf: 15.625</title>
</rect>
<rect x="361.5" y="452.0" width="8.6" height="142.0" rx="3" fill="#54A24B">
<title>deadline_tight srtf: 15.625</title>
</rect>
<rect x="374.1" y="495.2" width="8.6" height="98.8" rx="3" fill="#E45756">
<title>deadline_tight rr: 10.875</title>
</rect>
<rect x="386.8" y="458.9" width="8.6" height="135.1" rx="3" fill="#72B7B2">
<title>deadline_tight priority: 14.875</title>
</rect>
<rect x="399.4" y="504.3" width="8.6" height="89.7" rx="3" fill="#B279A2">
<title>deadline_tight mlfq: 9.875</title>
</rect>
<rect x="412.1" y="461.1" width="8.6" height="132.9" rx="3" fill="#FF9DA6">
<title>deadline_tight aamlfq: 14.625</title>
</rect>
<rect x="424.7" y="512.2" width="8.6" height="81.8" rx="3" fill="#9D755D">
<title>deadline_tight qlearn: 9.000</title>
</rect>
<text x="509.9" y="626" text-anchor="middle" font-family="Arial, sans-serif" font-size="13" fill="#333">interactive_io</text>
<rect x="461.3" y="297.2" width="8.6" height="296.8" rx="3" fill="#4C78A8">
<title>interactive_io fcfs: 32.667</title>
</rect>
<rect x="474.0" y="424.4" width="8.6" height="169.6" rx="3" fill="#F58518">
<title>interactive_io sjf: 18.667</title>
</rect>
<rect x="486.6" y="432.0" width="8.6" height="162.0" rx="3" fill="#54A24B">
<title>interactive_io srtf: 17.833</title>
</rect>
<rect x="499.3" y="530.4" width="8.6" height="63.6" rx="3" fill="#E45756">
<title>interactive_io rr: 7.000</title>
</rect>
<rect x="511.9" y="462.3" width="8.6" height="131.7" rx="3" fill="#72B7B2">
<title>interactive_io priority: 14.500</title>
</rect>
<rect x="524.5" y="548.6" width="8.6" height="45.4" rx="3" fill="#B279A2">
<title>interactive_io mlfq: 5.000</title>
</rect>
<rect x="537.2" y="551.6" width="8.6" height="42.4" rx="3" fill="#FF9DA6">
<title>interactive_io aamlfq: 4.667</title>
</rect>
<rect x="549.8" y="554.6" width="8.6" height="39.4" rx="3" fill="#9D755D">
<title>interactive_io qlearn: 4.333</title>
</rect>
<text x="635.0" y="626" text-anchor="middle" font-family="Arial, sans-serif" font-size="13" fill="#333">io_heavy</text>
<rect x="586.4" y="388.9" width="8.6" height="205.1" rx="3" fill="#4C78A8">
<title>io_heavy fcfs: 22.571</title>
</rect>
<rect x="599.1" y="461.6" width="8.6" height="132.4" rx="3" fill="#F58518">
<title>io_heavy sjf: 14.571</title>
</rect>
<rect x="611.7" y="488.9" width="8.6" height="105.1" rx="3" fill="#54A24B">
<title>io_heavy srtf: 11.571</title>
</rect>
<rect x="624.4" y="549.9" width="8.6" height="44.1" rx="3" fill="#E45756">
<title>io_heavy rr: 4.857</title>
</rect>
<rect x="637.0" y="469.4" width="8.6" height="124.6" rx="3" fill="#72B7B2">
<title>io_heavy priority: 13.714</title>
</rect>
<rect x="649.6" y="555.1" width="8.6" height="38.9" rx="3" fill="#B279A2">
<title>io_heavy mlfq: 4.286</title>
</rect>
<rect x="662.3" y="468.1" width="8.6" height="125.9" rx="3" fill="#FF9DA6">
<title>io_heavy aamlfq: 13.857</title>
</rect>
<rect x="674.9" y="560.3" width="8.6" height="33.7" rx="3" fill="#9D755D">
<title>io_heavy qlearn: 3.714</title>
</rect>
<text x="760.1" y="626" text-anchor="middle" font-family="Arial, sans-serif" font-size="13" fill="#333">long_tail_cpu</text>
<rect x="711.6" y="165.0" width="8.6" height="429.0" rx="3" fill="#4C78A8">
<title>long_tail_cpu fcfs: 47.222</title>
</rect>
<rect x="724.2" y="419.4" width="8.6" height="174.6" rx="3" fill="#F58518">
<title>long_tail_cpu sjf: 19.222</title>
</rect>
<rect x="736.8" y="419.4" width="8.6" height="174.6" rx="3" fill="#54A24B">
<title>long_tail_cpu srtf: 19.222</title>
</rect>
<rect x="749.5" y="492.0" width="8.6" height="102.0" rx="3" fill="#E45756">
<title>long_tail_cpu rr: 11.222</title>
</rect>
<rect x="762.1" y="413.3" width="8.6" height="180.7" rx="3" fill="#72B7B2">
<title>long_tail_cpu priority: 19.889</title>
</rect>
<rect x="774.8" y="505.2" width="8.6" height="88.8" rx="3" fill="#B279A2">
<title>long_tail_cpu mlfq: 9.778</title>
</rect>
<rect x="787.4" y="501.1" width="8.6" height="92.9" rx="3" fill="#FF9DA6">
<title>long_tail_cpu aamlfq: 10.222</title>
</rect>
<rect x="800.0" y="488.0" width="8.6" height="106.0" rx="3" fill="#9D755D">
<title>long_tail_cpu qlearn: 11.667</title>
</rect>
<text x="885.2" y="626" text-anchor="middle" font-family="Arial, sans-serif" font-size="13" fill="#333">mixed_large</text>
<rect x="836.7" y="161.0" width="8.6" height="433.0" rx="3" fill="#4C78A8">
<title>mixed_large fcfs: 47.667</title>
</rect>
<rect x="849.3" y="299.7" width="8.6" height="294.3" rx="3" fill="#F58518">
<title>mixed_large sjf: 32.400</title>
</rect>
<rect x="861.9" y="304.5" width="8.6" height="289.5" rx="3" fill="#54A24B">
<title>mixed_large srtf: 31.867</title>
</rect>
<rect x="874.6" y="407.5" width="8.6" height="186.5" rx="3" fill="#E45756">
<title>mixed_large rr: 20.533</title>
</rect>
<rect x="887.2" y="388.7" width="8.6" height="205.3" rx="3" fill="#72B7B2">
<title>mixed_large priority: 22.600</title>
</rect>
<rect x="899.9" y="440.8" width="8.6" height="153.2" rx="3" fill="#B279A2">
<title>mixed_large mlfq: 16.867</title>
</rect>
<rect x="912.5" y="319.0" width="8.6" height="275.0" rx="3" fill="#FF9DA6">
<title>mixed_large aamlfq: 30.267</title>
</rect>
<rect x="925.1" y="417.1" width="8.6" height="176.9" rx="3" fill="#9D755D">
<title>mixed_large qlearn: 19.467</title>
</rect>
<text x="1010.3" y="626" text-anchor="middle" font-family="Arial, sans-serif" font-size="13" fill="#333">short_burst_storm</text>
<rect x="961.8" y="309.6" width="8.6" height="284.4" rx="3" fill="#4C78A8">
<title>short_burst_storm fcfs: 31.300</title>
</rect>
<rect x="974.4" y="533.1" width="8.6" height="60.9" rx="3" fill="#F58518">
<title>short_burst_storm sjf: 6.700</title>
</rect>
<rect x="987.1" y="533.1" width="8.6" height="60.9" rx="3" fill="#54A24B">
<title>short_burst_storm srtf: 6.700</title>
</rect>
<rect x="999.7" y="515.0" width="8.6" height="79.0" rx="3" fill="#E45756">
<title>short_burst_storm rr: 8.700</title>
</rect>
<rect x="1012.3" y="534.9" width="8.6" height="59.1" rx="3" fill="#72B7B2">
<title>short_burst_storm priority: 6.500</title>
</rect>
<rect x="1025.0" y="518.6" width="8.6" height="75.4" rx="3" fill="#B279A2">
<title>short_burst_storm mlfq: 8.300</title>
</rect>
<rect x="1037.6" y="544.9" width="8.6" height="49.1" rx="3" fill="#FF9DA6">
<title>short_burst_storm aamlfq: 5.400</title>
</rect>
<rect x="1050.2" y="555.8" width="8.6" height="38.2" rx="3" fill="#9D755D">
<title>short_burst_storm qlearn: 4.200</title>
</rect>
<text x="1135.4" y="626" text-anchor="middle" font-family="Arial, sans-serif" font-size="13" fill="#333">starvation_risk</text>
<rect x="1086.9" y="333.1" width="8.6" height="260.9" rx="3" fill="#4C78A8">
<title>starvation_risk fcfs: 28.714</title>
</rect>
<rect x="1099.5" y="333.1" width="8.6" height="260.9" rx="3" fill="#F58518">
<title>starvation_risk sjf: 28.714</title>
</rect>
<rect x="1112.2" y="574.5" width="8.6" height="19.5" rx="3" fill="#54A24B">
<title>starvation_risk srtf: 2.143</title>
</rect>
<rect x="1124.8" y="514.8" width="8.6" height="79.2" rx="3" fill="#E45756">
<title>starvation_risk rr: 8.714</title>
</rect>
<rect x="1137.4" y="574.5" width="8.6" height="19.5" rx="3" fill="#72B7B2">
<title>starvation_risk priority: 2.143</title>
</rect>
<rect x="1150.1" y="551.2" width="8.6" height="42.8" rx="3" fill="#B279A2">
<title>starvation_risk mlfq: 4.714</title>
</rect>
<rect x="1162.7" y="551.2" width="8.6" height="42.8" rx="3" fill="#FF9DA6">
<title>starvation_risk aamlfq: 4.714</title>
</rect>
<rect x="1175.4" y="548.6" width="8.6" height="45.4" rx="3" fill="#9D755D">
<title>starvation_risk qlearn: 5.000</title>
</rect>
<rect x="86" y="654" width="14" height="14" rx="2" fill="#4C78A8"/>
<text x="106" y="666" font-family="Arial, sans-serif" font-size="13" fill="#333">fcfs</text>
<rect x="180" y="654" width="14" height="14" rx="2" fill="#F58518"/>
<text x="200" y="666" font-family="Arial, sans-serif" font-size="13" fill="#333">sjf</text>
<rect x="274" y="654" width="14" height="14" rx="2" fill="#54A24B"/>
<text x="294" y="666" font-family="Arial, sans-serif" font-size="13" fill="#333">srtf</text>
<rect x="368" y="654" width="14" height="14" rx="2" fill="#E45756"/>
<text x="388" y="666" font-family="Arial, sans-serif" font-size="13" fill="#333">rr</text>
<rect x="462" y="654" width="14" height="14" rx="2" fill="#72B7B2"/>
<text x="482" y="666" font-family="Arial, sans-serif" font-size="13" fill="#333">priority</text>
<rect x="556" y="654" width="14" height="14" rx="2" fill="#B279A2"/>
<text x="576" y="666" font-family="Arial, sans-serif" font-size="13" fill="#333">mlfq</text>
<rect x="650" y="654" width="14" height="14" rx="2" fill="#FF9DA6"/>
<text x="670" y="666" font-family="Arial, sans-serif" font-size="13" fill="#333">aamlfq</text>
<rect x="744" y="654" width="14" height="14" rx="2" fill="#9D755D"/>
<text x="764" y="666" font-family="Arial, sans-serif" font-size="13" fill="#333">qlearn</text>
</svg>