<svg xmlns="http://www.w3.org/2000/svg" width="1220" height="720" viewBox="0 0 1220 720">
<rect width="100%" height="100%" fill="#fbfbf8"/>
<text x="86" y="42" font-family="Arial, sans-serif" font-size="26" font-weight="700" fill="#242424">Average Turnaround Time</text>
<text x="86" y="70" font-family="Arial, sans-serif" font-size="14" fill="#666">lower is better</text>
<line x1="86" y1="594.0" x2="1184" y2="594.0" stroke="#e1e1dc" stroke-width="1"/>
<text x="76" y="598.0" text-anchor="end" font-family="Arial, sans-serif" font-size="12" fill="#666">0.00</text>
<line x1="86" y1="494.4" x2="1184" y2="494.4" stroke="#e1e1dc" stroke-width="1"/>
<text x="76" y="498.4" text-anchor="end" font-family="Arial, sans-serif" font-size="12" fill="#666">22.57</text>
<line x1="86" y1="394.8" x2="1184" y2="394.8" stroke="#e1e1dc" stroke-width="1"/>
<text x="76" y="398.8" text-anchor="end" font-family="Arial, sans-serif" font-size="12" fill="#666">45.15</text>
<line x1="86" y1="295.2" x2="1184" y2="295.2" stroke="#e1e1dc" stroke-width="1"/>
<text x="76" y="299.2" text-anchor="end" font-family="Arial, sans-serif" font-size="12" fill="#666">67.72</text>
<line x1="86" y1="195.6" x2="1184" y2="195.6" stroke="#e1e1dc" stroke-width="1"/>
<text x="76" y="199.6" text-anchor="end" font-family="Arial, sans-serif" font-size="12" fill="#666">90.29</text>
<line x1="86" y1="96.0" x2="1184" y2="96.0" stroke="#e1e1dc" stroke-width="1"/>
<text x="76" y="100.0" text-anchor="end" font-family="Arial, sans-serif" font-size="12" fill="#666">112.86</text>
<line x1="86" y1="96" x2="86" y2="594" stroke="#333" stroke-width="1.2"/>
<line x1="86" y1="594" x2="1184" y2="594" stroke="#333" stroke-width="1.2"/>
<text x="134.6" y="626" text-anchor="middle" font-family="Arial, sans-serif" font-size="13" fill="#333">cpu_mixed</text>
<rect x="86.0" y="440.3" width="8.6" height="153.7" rx="3" fill="#4C78A8">
<title>cpu_mixed fcfs: 34.833</title>
</rect>
<rect x="98.6" y="453.5" width="8.6" height="140.5" rx="3" fill="#F58518">
<title>cpu_mixed sjf: 31.833</title>
</rect>
<rect x="111.3" y="502.8" width="8.6" height="91.2" rx="3" fill="#54A24B">
<title>cpu_mixed srtf: 20.667</title>
</rect>
<rect x="123.9" y="445.4" width="8.6" height="148.6" rx="3" fill="#E45756">
<title>cpu_mixed rr: 33.667</title>
</rect>
<rect x="136.6" y="487.4" width="8.6" height="106.6" rx="3" fill="#72B7B2">
<title>cpu_mixed priority: 24.167</title>
</rect>
<rect x="149.2" y="449.1" width="8.6" height="144.9" rx="3" fill="#B279A2">
<title>cpu_mixed mlfq: 32.833</title>
</rect>
<rect x="161.8" y="475.6" width="8.6" height="118.4" rx="3" fill="#FF9DA6">
<title>cpu_mixed aamlfq: 26.833</title>
</rect>
<rect x="174.5" y="488.8" width="8.6" height="105.2" rx="3" fill="#9D755D">
<title>cpu_mixed qlearn: 23.833</title>
</rect>
<text x="259.7" y="626" text-anchor="middle" font-family="Arial, sans-serif" font-size="13" fill="#333">deadline_pressure</text>
<rect x="211.1" y="468.2" width="8.6" height="125.8" rx="3" fill="#4C78A8">
<title>deadline_pressure fcfs: 28.500</title>
</rect>
<rect x="223.8" y="496.9" width="8.6" height="97.1" rx="3" fill="#F58518">
<title>deadline_pressure sjf: 22.000</title>
</rect>
<rect x="236.4" y="505.0" width="8.6" height="89.0" rx="3" fill="#54A24B">
<title>deadline_pressure srtf: 20.167</title>
</rect>
<rect x="249.0" y="455.0" width="8.6" height="139.0" rx="3" fill="#E45756">
<title>deadline_pressure rr: 31.500</title>
</rect>
<rect x="261.7" y="466.8" width="8.6" height="127.2" rx="3" fill="#72B7B2">
<title>deadline_pressure priority: 28.833</title>
</rect>
<rect x="274.3" y="446.2" width="8.6" height="147.8" rx="3" fill="#B279A2">
<title>deadline_pressure mlfq: 33.500</title>
</rect>
<rect x="286.9" y="491.8" width="8.6" height="102.2" rx="3" fill="#FF9DA6">
<title>deadline_pressure aamlfq: 23.167</title>
</rect>
<rect x="299.6" y="474.1" width="8.6" height="119.9" rx="3" fill="#9D755D">
<title>deadline_pressure qlearn: 27.167</title>
</rect>
<text x="384.8" y="626" text-anchor="middle" font-family="Arial, sans-serif" font-size="13" fill="#333">deadline_tight</text>
<rect x="336.2" y="397.1" width="8.6" height="196.9" rx="3" fill="#4C78A8">
<title>deadline_tight fcfs: 44.625</title>
</rect>
<rect x="348.9" y="482.0" width="8.6" height="112.0" rx="3" fill="#F58518">
<title>deadline_tight sjf: 25.375</title>
</rect>
<rect x="361.5" y="482.0" width="8.6" height="112.0" rx="3" fill="#54A24B">
<title>deadline_tight srtf: 25.375</title>
</rect>
<rect x="374.1" y="411.4" width="8.6" height="182.6" rx="3" fill="#E45756">
<title>deadline_tight rr: 41.375</title>
</rect>
<rect x="386.8" y="475.4" width="8.6" height="118.6" rx="3" fill="#72B7B2">
<title>deadline_tight priority: 26.875</title>
</rect>
<rect x="399.4" y="402.1" width="8.6" height="191.9" rx="3" fill="#B279A2">
<title>deadline_tight mlfq: 43.500</title>
</rect>
<rect x="412.1" y="468.8" width="8.6" height="125.2" rx="3" fill="#FF9DA6">
<title>deadline_tight aamlfq: 28.375</title>
</rect>
<rect x="424.7" y="462.2" width="8.6" height="131.8" rx="3" fill="#9D755D">
<title>deadline_tight qlearn: 29.875</title>
</rect>
<text x="509.9" y="626" text-anchor="middle" font-family="Arial, sans-serif" font-size="13" fill="#333">interactive_io</text>
<rect x="461.3" y="286.6" width="8.6" height="307.4" rx="3" fill="#4C78A8">
<title>interactive_io fcfs: 69.667</title>
</rect>
<rect x="474.0" y="293.2" width="8.6" height="300.8" rx="3" fill="#F58518">
<title>interactive_io sjf: 68.167</title>
</rect>
<rect x="486.6" y="371.9" width="8.6" height="222.1" rx="3" fill="#54A24B">
<title>interactive_io srtf: 50.333</title>
</rect>
<rect x="499.3" y="225.6" width="8.6" height="368.4" rx="3" fill="#E45756">
<title>interactive_io rr: 83.500</title>
</rect>
<rect x="511.9" y="344.7" width="8.6" height="249.3" rx="3" fill="#72B7B2">
<title>interactive_io priority: 56.500</title>
</rect>
<rect x="524.5" y="307.9" width="8.6" height="286.1" rx="3" fill="#B279A2">
<title>interactive_io mlfq: 64.833</title>
</rect>
<rect x="537.2" y="304.3" width="8.6" height="289.7" rx="3" fill="#FF9DA6">
<title>interactive_io aamlfq: 65.667</title>
</rect>
<rect x="549.8" y="329.3" width="8.6" height="264.7" rx="3" fill="#9D755D">
<title>interactive_io qlearn: 60.000</title>
</rect>
<text x="635.0" y="626" text-anchor="middle" font-family="Arial, sans-serif" font-size="13" fill="#333">io_heavy</text>
<rect x="586.4" y="214.5" width="8.6" height="379.5" rx="3" fill="#4C78A8">
<title>io_heavy fcfs: 86.000</title>
</rect>
<rect x="599.1" y="224.6" width="8.6" height="369.4" rx="3" fill="#F58518">
<title>io_heavy sjf: 83.714</title>
</rect>
<rect x="611.7" y="294.6" width="8.6" height="299.4" rx="3" fill="#54A24B">
<title>io_heavy srtf: 67.857</title>
</rect>
<rect x="624.4" y="161.0" width="8.6" height="433.0" rx="3" fill="#E45756">
<title>io_heavy rr: 98.143</title>
</rect>
<rect x="637.0" y="284.5" width="8.6" height="309.5" rx="3" fill="#72B7B2">
<title>io_heavy priority: 70.143</title>
</rect>
<rect x="649.6" y="256.1" width="8.6" height="337.9" rx="3" fill="#B279A2">
<title>io_heavy mlfq: 76.571</title>
</rect>
<rect x="662.3" y="270.6" width="8.6" height="323.4" rx="3" fill="#FF9DA6">
<title>io_heavy aamlfq: 73.286</title>
</rect>
<rect x="674.9" y="251.1" width="8.6" height="342.9" rx="3" fill="#9D755D">
<title>io_heavy qlearn: 77.714</title>
</rect>
<text x="760.1" y="626" text-anchor="middle" font-family="Arial, sans-serif" font-size="13" fill="#333">long_tail_cpu</text>
<rect x="711.6" y="330.2" width="8.6" height="263.8" rx="3" fill="#4C78A8">
<title>long_tail_cpu fcfs: 59.778</title>
</rect>
<rect x="724.2" y="453.8" width="8.6" height="140.2" rx="3" fill="#F58518">
<title>long_tail_cpu sjf: 31.778</title>
</rect>
<rect x="736.8" y="453.8" width="8.6" height="140.2" rx="3" fill="#54A24B">
<title>long_tail_cpu srtf: 31.778</title>
</rect>
<rect x="749.5" y="362.6" width="8.6" height="231.4" rx="3" fill="#E45756">
<title>long_tail_cpu rr: 52.444</title>
</rect>
<rect x="762.1" y="448.4" width="8.6" height="145.6" rx="3" fill="#72B7B2">
<title>long_tail_cpu priority: 33.000</title>
</rect>
<rect x="774.8" y="346.9" width="8.6" height="247.1" rx="3" fill="#B279A2">
<title>long_tail_cpu mlfq: 56.000</title>
</rect>
<rect x="787.4" y="394.0" width="8.6" height="200.0" rx="3" fill="#FF9DA6">
<title>long_tail_cpu aamlfq: 45.333</title>
</rect>
<rect x="800.0" y="420.4" width="8.6" height="173.6" rx="3" fill="#9D755D">
<title>long_tail_cpu qlearn: 39.333</title>
</rect>
<text x="885.2" y="626" text-anchor="middle" font-family="Arial, sans-serif" font-size="13" fill="#333">mixed_large</text>
<rect x="836.7" y="234.5" width="8.6" height="359.5" rx="3" fill="#4C78A8">
<title>mixed_large fcfs: 81.467</title>
</rect>
<rect x="849.3" y="355.4" width="8.6" height="238.6" rx="3" fill="#F58518">
<title>mixed_large sjf: 54.067</title>
</rect>
<rect x="861.9" y="368.1" width="8.6" height="225.9" rx="3" fill="#54A24B">
<title>mixed_large srtf: 51.200</title>
</rect>
<rect x="874.6" y="196.3" width="8.6" height="397.7" rx="3" fill="#E45756">
<title>mixed_large rr: 90.133</title>
</rect>
<rect x="887.2" y="348.1" width="8.6" height="245.9" rx="3" fill="#72B7B2">
<title>mixed_large priority: 55.733</title>
</rect>
<rect x="899.9" y="224.2" width="8.6" height="369.8" rx="3" fill="#B279A2">
<title>mixed_large mlfq: 83.800</title>
</rect>
<rect x="912.5" y="336.3" width="8.6" height="257.7" rx="3" fill="#FF9DA6">
<title>mixed_large aamlfq: 58.400</title>
</rect>
<rect x="925.1" y="297.5" width="8.6" height="296.5" rx="3" fill="#9D755D">
<title>mixed_large qlearn: 67.200</title>
</rect>
<text x="1010.3" y="626" text-anchor="middle" font-family="Arial, sans-serif" font-size="13" fill="#333">short_burst_storm</text>
<rect x="961.8" y="430.3" width="8.6" height="163.7" rx="3" fill="#4C78A8">
<title>short_burst_storm fcfs: 37.100</title>
</rect>
<rect x="974.4" y="538.8" width="8.6" height="55.2" rx="3" fill="#F58518">
<title>short_burst_storm sjf: 12.500</title>
</rect>
<rect x="987.1" y="538.8" width="8.6" height="55.2" rx="3" fill="#54A24B">
<title>short_burst_storm srtf: 12.500</title>
</rect>
<rect x="999.7" y="504.0" width="8.6" height="90.0" rx="3" fill="#E45756">
<title>short_burst_storm rr: 20.400</title>
</rect>
<rect x="1012.3" y="538.0" width="8.6" height="56.0" rx="3" fill="#72B7B2">
<title>short_burst_storm priority: 12.700</title>
</rect>
<rect x="1025.0" y="506.6" width="8.6" height="87.4" rx="3" fill="#B279A2">
<title>short_burst_storm mlfq: 19.800</title>
</rect>
<rect x="1037.6" y="533.1" width="8.6" height="60.9" rx="3" fill="#FF9DA6">
<title>short_burst_storm aamlfq: 13.800</title>
</rect>
<rect x="1050.2" y="526.9" width="8.6" height="67.1" rx="3" fill="#9D755D">
<title>short_burst_storm qlearn: 15.200</title>
</rect>
<text x="1135.4" y="626" text-anchor="middle" font-family="Arial, sans-serif" font-size="13" fill="#333">starvation_risk</text>
<rect x="1086.9" y="429.5" width="8.6" height="164.5" rx="3" fill="#4C78A8">
<title>starvation_risk fcfs: 37.286</title>
</rect>
<rect x="1099.5" y="429.5" width="8.6" height="164.5" rx="3" fill="#F58518">
<title>starvation_risk sjf: 37.286</title>
</rect>
<rect x="1112.2" y="529.1" width="8.6" height="64.9" rx="3" fill="#54A24B">
<title>starvation_risk srtf: 14.714</title>
</rect>
<rect x="1124.8" y="497.6" width="8.6" height="96.4" rx="3" fill="#E45756">
<title>starvation_risk rr: 21.857</title>
</rect>
<rect x="1137.4" y="529.1" width="8.6" height="64.9" rx="3" fill="#72B7B2">
<title>starvation_risk priority: 14.714</title>
</rect>
<rect x="1150.1" y="512.7" width="8.6" height="81.3" rx="3" fill="#B279A2">
<title>starvation_risk mlfq: 18.429</title>
</rect>
<rect x="1162.7" y="515.2" width="8.6" height="78.8" rx="3" fill="#FF9DA6">
<title>starvation_risk aamlfq: 17.857</title>
</rect>
<rect x="1175.4" y="516.5" width="8.6" height="77.5" rx="3" fill="#9D755D">
<title>starvation_risk qlearn: 17.571</title>
</rect>
<rect x="86" y="654" width="14" height="14" rx="2" fill="#4C78A8"/>
<text x="106" y="666" font-family="Arial, sans-serif" font-size="13" fill="#333">fcfs</text>
<rect x="180" y="654" width="14" height="14" rx="2" fill="#F58518"/>
<text x="200" y="666" font-family="Arial, sans-serif" font-size="13" fill="#333">sjf</text>
<rect x="274" y="654" width="14" height="14" rx="2" fill="#54A24B"/>
<text x="294" y="666" font-family="Arial, sans-serif" font-size="13" fill="#333">srtf</text>
<rect x="368" y="654" width="14" height="14" rx="2" fill="#E45756"/>
<text x="388" y="666" font-family="Arial, sans-serif" font-size="13" fill="#333">rr</text>
<rect x="462" y="654" width="14" height="14" rx="2" fill="#72B7B2"/>
<text x="482" y="666" font-family="Arial, sans-serif" font-size="13" fill="#333">priority</text>
<rect x="556" y="654" width="14" height="14" rx="2" fill="#B279A2"/>
<text x="576" y="666" font-family="Arial, sans-serif" font-size="13" fill="#333">mlfq</text>
<rect x="650" y="654" width="14" height="14" rx="2" fill="#FF9DA6"/>
<text x="670" y="666" font-family="Arial, sans-serif" font-size="13" fill="#333">aamlfq</text>
<rect x="744" y="654" width="14" height="14" rx="2" fill="#9D755D"/>
<text x="764" y="666" font-family="Arial, sans-serif" font-size="13" fill="#333">qlearn</text>
</svg>