<svg xmlns="http://www.w3.org/2000/svg" width="1220" height="720" viewBox="0 0 1220 720">
<rect width="100%" height="100%" fill="#fbfbf8"/>
<text x="86" y="42" font-family="Arial, sans-serif" font-size="26" font-weight="700" fill="#242424">Deadline Misses</text>
<text x="86" y="70" font-family="Arial, sans-serif" font-size="14" fill="#666">lower is better</text>
<line x1="86" y1="594.0" x2="1184" y2="594.0" stroke="#e1e1dc" stroke-width="1"/>
<text x="76" y="598.0" text-anchor="end" font-family="Arial, sans-serif" font-size="12" fill="#666">0.00</text>
<line x1="86" y1="494.4" x2="1184" y2="494.4" stroke="#e1e1dc" stroke-width="1"/>
<text x="76" y="498.4" text-anchor="end" font-family="Arial, sans-serif" font-size="12" fill="#666">3.22</text>
<line x1="86" y1="394.8" x2="1184" y2="394.8" stroke="#e1e1dc" stroke-width="1"/>
<text x="76" y="398.8" text-anchor="end" font-family="Arial, sans-serif" font-size="12" fill="#666">6.44</text>
<line x1="86" y1="295.2" x2="1184" y2="295.2" stroke="#e1e1dc" stroke-width="1"/>
<text x="76" y="299.2" text-anchor="end" font-family="Arial, sans-serif" font-size="12" fill="#666">9.66</text>
<line x1="86" y1="195.6" x2="1184" y2="195.6" stroke="#e1e1dc" stroke-width="1"/>
<text x="76" y="199.6" text-anchor="end" font-family="Arial, sans-serif" font-size="12" fill="#666">12.88</text>
<line x1="86" y1="96.0" x2="1184" y2="96.0" stroke="#e1e1dc" stroke-width="1"/>
<text x="76" y="100.0" text-anchor="end" font-family="Arial, sans-serif" font-size="12" fill="#666">16.10</text>
<line x1="86" y1="96" x2="86" y2="594" stroke="#333" stroke-width="1.2"/>
<line x1="86" y1="594" x2="1184" y2="594" stroke="#333" stroke-width="1.2"/>
<text x="134.6" y="626" text-anchor="middle" font-family="Arial, sans-serif" font-size="13" fill="#333">cpu_mixed</text>
<rect x="86.0" y="501.2" width="8.6" height="92.8" rx="3" fill="#4C78A8">
<title>cpu_mixed fcfs: 3.000</title>
</rect>
<rect x="98.6" y="470.3" width="8.6" height="123.7" rx="3" fill="#F58518">
<title>cpu_mixed sjf: 4.000</title>
</rect>
<rect x="111.3" y="594.0" width="8.6" height="0.0" rx="3" fill="#54A24B">
<title>cpu_mixed srtf: 0.000</title>
</rect>
<rect x="123.9" y="501.2" width="8.6" height="92.8" rx="3" fill="#E45756">
<title>cpu_mixed rr: 3.000</title>
</rect>
<rect x="136.6" y="594.0" width="8.6" height="0.0" rx="3" fill="#72B7B2">
<title>cpu_mixed priority: 0.000</title>
</rect>
<rect x="149.2" y="532.1" width="8.6" height="61.9" rx="3" fill="#B279A2">
<title>cpu_mixed mlfq: 2.000</title>
</rect>
<rect x="161.8" y="594.0" width="8.6" height="0.0" rx="3" fill="#FF9DA6">
<title>cpu_mixed aamlfq: 0.000</title>
</rect>
<rect x="174.5" y="594.0" width="8.6" height="0.0" rx="3" fill="#9D755D">
<title>cpu_mixed qlearn: 0.000</title>
</rect>
<text x="259.7" y="626" text-anchor="middle" font-family="Arial, sans-serif" font-size="13" fill="#333">deadline_pressure</text>
<rect x="211.1" y="501.2" width="8.6" height="92.8" rx="3" fill="#4C78A8">
<title>deadline_pressure fcfs: 3.000</title>
</rect>
<rect x="223.8" y="532.1" width="8.6" height="61.9" rx="3" fill="#F58518">
<title>deadline_pressure sjf: 2.000</title>
</rect>
<rect x="236.4" y="532.1" width="8.6" height="61.9" rx="3" fill="#54A24B">
<title>deadline_pressure srtf: 2.000</title>
</rect>
<rect x="249.0" y="439.3" width="8.6" height="154.7" rx="3" fill="#E45756">
<title>deadline_pressure rr: 5.000</title>
</rect>
<rect x="261.7" y="501.2" width="8.6" height="92.8" rx="3" fill="#72B7B2">
<title>deadline_pressure priority: 3.000</title>
</rect>
<rect x="274.3" y="439.3" width="8.6" height="154.7" rx="3" fill="#B279A2">
<title>deadline_pressure mlfq: 5.000</title>
</rect>
<rect x="286.9" y="532.1" width="8.6" height="61.9" rx="3" fill="#FF9DA6">
<title>deadline_pressure aamlfq: 2.000</title>
</rect>
<rect x="299.6" y="501.2" width="8.6" height="92.8" rx="3" fill="#9D755D">
<title>deadline_pressure qlearn: 3.000</title>
</rect>
<text x="384.8" y="626" text-anchor="middle" font-family="Arial, sans-serif" font-size="13" fill="#333">deadline_tight</text>
<rect x="336.2" y="439.3" width="8.6" height="154.7" rx="3" fill="#4C78A8">
<title>deadline_tight fcfs: 5.000</title>
</rect>
<rect x="348.9" y="532.1" width="8.6" height="61.9" rx="3" fill="#F58518">
<title>deadline_tight sjf: 2.000</title>
</rect>
<rect x="361.5" y="532.1" width="8.6" height="61.9" rx="3" fill="#54A24B">
<title>deadline_tight srtf: 2.000</title>
</rect>
<rect x="374.1" y="439.3" width="8.6" height="154.7" rx="3" fill="#E45756">
<title>deadline_tight rr: 5.000</title>
</rect>
<rect x="386.8" y="532.1" width="8.6" height="61.9" rx="3" fill="#72B7B2">
<title>deadline_tight priority: 2.000</title>
</rect>
<rect x="399.4" y="439.3" width="8.6" height="154.7" rx="3" fill="#B279A2">
<title>deadline_tight mlfq: 5.000</title>
</rect>
<rect x="412.1" y="563.1" width="8.6" height="30.9" rx="3" fill="#FF9DA6">
<title>deadline_tight aamlfq: 1.000</title>
</rect>
<rect x="424.7" y="532.1" width="8.6" height="61.9" rx="3" fill="#9D755D">
<title>deadline_tight qlearn: 2.000</title>
</rect>
<text x="509.9" y="626" text-anchor="middle" font-family="Arial, sans-serif" font-size="13" fill="#333">interactive_io</text>
<rect x="461.3" y="501.2" width="8.6" height="92.8" rx="3" fill="#4C78A8">
<title>interactive_io fcfs: 3.000</title>
</rect>
<rect x="474.0" y="501.2" width="8.6" height="92.8" rx="3" fill="#F58518">
<title>interactive_io sjf: 3.000</title>
</rect>
<rect x="486.6" y="563.1" width="8.6" height="30.9" rx="3" fill="#54A24B">
<title>interactive_io srtf: 1.000</title>
</rect>
<rect x="499.3" y="470.3" width="8.6" height="123.7" rx="3" fill="#E45756">
<title>interactive_io rr: 4.000</title>
</rect>
<rect x="511.9" y="594.0" width="8.6" height="0.0" rx="3" fill="#72B7B2">
<title>interactive_io priority: 0.000</title>
</rect>
<rect x="524.5" y="470.3" width="8.6" height="123.7" rx="3" fill="#B279A2">
<title>interactive_io mlfq: 4.000</title>
</rect>
<rect x="537.2" y="532.1" width="8.6" height="61.9" rx="3" fill="#FF9DA6">
<title>interactive_io aamlfq: 2.000</title>
</rect>
<rect x="549.8" y="501.2" width="8.6" height="92.8" rx="3" fill="#9D755D">
<title>interactive_io qlearn: 3.000</title>
</rect>
<text x="635.0" y="626" text-anchor="middle" font-family="Arial, sans-serif" font-size="13" fill="#333">io_heavy</text>
<rect x="586.4" y="439.3" width="8.6" height="154.7" rx="3" fill="#4C78A8">
<title>io_heavy fcfs: 5.000</title>
</rect>
<rect x="599.1" y="501.2" width="8.6" height="92.8" rx="3" fill="#F58518">
<title>io_heavy sjf: 3.000</title>
</rect>
<rect x="611.7" y="532.1" width="8.6" height="61.9" rx="3" fill="#54A24B">
<title>io_heavy srtf: 2.000</title>
</rect>
<rect x="624.4" y="439.3" width="8.6" height="154.7" rx="3" fill="#E45756">
<title>io_heavy rr: 5.000</title>
</rect>
<rect x="637.0" y="563.1" width="8.6" height="30.9" rx="3" fill="#72B7B2">
<title>io_heavy priority: 1.000</title>
</rect>
<rect x="649.6" y="501.2" width="8.6" height="92.8" rx="3" fill="#B279A2">
<title>io_heavy mlfq: 3.000</title>
</rect>
<rect x="662.3" y="563.1" width="8.6" height="30.9" rx="3" fill="#FF9DA6">
<title>io_heavy aamlfq: 1.000</title>
</rect>
<rect x="674.9" y="501.2" width="8.6" height="92.8" rx="3" fill="#9D755D">
<title>io_heavy qlearn: 3.000</title>
</rect>
<text x="760.1" y="626" text-anchor="middle" font-family="Arial, sans-serif" font-size="13" fill="#333">long_tail_cpu</text>
<rect x="711.6" y="439.3" width="8.6" height="154.7" rx="3" fill="#4C78A8">
<title>long_tail_cpu fcfs: 5.000</title>
</rect>
<rect x="724.2" y="594.0" width="8.6" height="0.0" rx="3" fill="#F58518">
<title>long_tail_cpu sjf: 0.000</title>
</rect>
<rect x="736.8" y="594.0" width="8.6" height="0.0" rx="3" fill="#54A24B">
<title>long_tail_cpu srtf: 0.000</title>
</rect>
<rect x="749.5" y="563.1" width="8.6" height="30.9" rx="3" fill="#E45756">
<title>long_tail_cpu rr: 1.000</title>
</rect>
<rect x="762.1" y="594.0" width="8.6" height="0.0" rx="3" fill="#72B7B2">
<title>long_tail_cpu priority: 0.000</title>
</rect>
<rect x="774.8" y="470.3" width="8.6" height="123.7" rx="3" fill="#B279A2">
<title>long_tail_cpu mlfq: 4.000</title>
</rect>
<rect x="787.4" y="594.0" width="8.6" height="0.0" rx="3" fill="#FF9DA6">
<title>long_tail_cpu aamlfq: 0.000</title>
</rect>
<rect x="800.0" y="594.0" width="8.6" height="0.0" rx="3" fill="#9D755D">
<title>long_tail_cpu qlearn: 0.000</title>
</rect>
<text x="885.2" y="626" text-anchor="middle" font-family="Arial, sans-serif" font-size="13" fill="#333">mixed_large</text>
<rect x="836.7" y="253.8" width="8.6" height="340.2" rx="3" fill="#4C78A8">
<title>mixed_large fcfs: 11.000</title>
</rect>
<rect x="849.3" y="377.5" width="8.6" height="216.5" rx="3" fill="#F58518">
<title>mixed_large sjf: 7.000</title>
</rect>
<rect x="861.9" y="439.3" width="8.6" height="154.7" rx="3" fill="#54A24B">
<title>mixed_large srtf: 5.000</title>
</rect>
<rect x="874.6" y="161.0" width="8.6" height="433.0" rx="3" fill="#E45756">
<title>mixed_large rr: 14.000</title>
</rect>
<rect x="887.2" y="377.5" width="8.6" height="216.5" rx="3" fill="#72B7B2">
<title>mixed_large priority: 7.000</title>
</rect>
<rect x="899.9" y="253.8" width="8.6" height="340.2" rx="3" fill="#B279A2">
<title>mixed_large mlfq: 11.000</title>
</rect>
<rect x="912.5" y="377.5" width="8.6" height="216.5" rx="3" fill="#FF9DA6">
<title>mixed_large aamlfq: 7.000</title>
</rect>
<rect x="925.1" y="315.6" width="8.6" height="278.4" rx="3" fill="#9D755D">
<title>mixed_large qlearn: 9.000</title>
</rect>
<text x="1010.3" y="626" text-anchor="middle" font-family="Arial, sans-serif" font-size="13" fill="#333">short_burst_storm</text>
<rect x="961.8" y="377.5" width="8.6" height="216.5" rx="3" fill="#4C78A8">
<title>short_burst_storm fcfs: 7.000</title>
</rect>
<rect x="974.4" y="594.0" width="8.6" height="0.0" rx="3" fill="#F58518">
<title>short_burst_storm sjf: 0.000</title>
</rect>
<rect x="987.1" y="594.0" width="8.6" height="0.0" rx="3" fill="#54A24B">
<title>short_burst_storm srtf: 0.000</title>
</rect>
<rect x="999.7" y="532.1" width="8.6" height="61.9" rx="3" fill="#E45756">
<title>short_burst_storm rr: 2.000</title>
</rect>
<rect x="1012.3" y="594.0" width="8.6" height="0.0" rx="3" fill="#72B7B2">
<title>short_burst_storm priority: 0.000</title>
</rect>
<rect x="1025.0" y="563.1" width="8.6" height="30.9" rx="3" fill="#B279A2">
<title>short_burst_storm mlfq: 1.000</title>
</rect>
<rect x="1037.6" y="594.0" width="8.6" height="0.0" rx="3" fill="#FF9DA6">
<title>short_burst_storm aamlfq: 0.000</title>
</rect>
<rect x="1050.2" y="594.0" width="8.6" height="0.0" rx="3" fill="#9D755D">
<title>short_burst_storm qlearn: 0.000</title>
</rect>
<text x="1135.4" y="626" text-anchor="middle" font-family="Arial, sans-serif" font-size="13" fill="#333">starvation_risk</text>
<rect x="1086.9" y="439.3" width="8.6" height="154.7" rx="3" fill="#4C78A8">
<title>starvation_risk fcfs: 5.000</title>
</rect>
<rect x="1099.5" y="439.3" width="8.6" height="154.7" rx="3" fill="#F58518">
<title>starvation_risk sjf: 5.000</title>
</rect>
<rect x="1112.2" y="594.0" width="8.6" height="0.0" rx="3" fill="#54A24B">
<title>starvation_risk srtf: 0.000</title>
</rect>
<rect x="1124.8" y="594.0" width="8.6" height="0.0" rx="3" fill="#E45756">
<title>starvation_risk rr: 0.000</title>
</rect>
<rect x="1137.4" y="594.0" width="8.6" height="0.0" rx="3" fill="#72B7B2">
<title>starvation_risk priority: 0.000</title>
</rect>
<rect x="1150.1" y="594.0" width="8.6" height="0.0" rx="3" fill="#B279A2">
<title>starvation_risk mlfq: 0.000</title>
</rect>
<rect x="1162.7" y="594.0" width="8.6" height="0.0" rx="3" fill="#FF9DA6">
<title>starvation_risk aamlfq: 0.000</title>
</rect>
<rect x="1175.4" y="594.0" width="8.6" height="0.0" rx="3" fill="#9D755D">
<title>starvation_risk qlearn: 0.000</title>
</rect>
<rect x="86" y="654" width="14" height="14" rx="2" fill="#4C78A8"/>
<text x="106" y="666" font-family="Arial, sans-serif" font-size="13" fill="#333">fcfs</text>
<rect x="180" y="654" width="14" height="14" rx="2" fill="#F58518"/>
<text x="200" y="666" font-family="Arial, sans-serif" font-size="13" fill="#333">sjf</text>
<rect x="274" y="654" width="14" height="14" rx="2" fill="#54A24B"/>
<text x="294" y="666" font-family="Arial, sans-serif" font-size="13" fill="#333">srtf</text>
<rect x="368" y="654" width="14" height="14" rx="2" fill="#E45756"/>
<text x="388" y="666" font-family="Arial, sans-serif" font-size="13" fill="#333">rr</text>
<rect x="462" y="654" width="14" height="14" rx="2" fill="#72B7B2"/>
<text x="482" y="666" font-family="Arial, sans-serif" font-size="13" fill="#333">priority</text>
<rect x="556" y="654" width="14" height="14" rx="2" fill="#B279A2"/>
<text x="576" y="666" font-family="Arial, sans-serif" font-size="13" fill="#333">mlfq</text>
<rect x="650" y="654" width="14" height="14" rx="2" fill="#FF9DA6"/>
<text x="670" y="666" font-family="Arial, sans-serif" font-size="13" fill="#333">aamlfq</text>
<rect x="744" y="654" width="14" height="14" rx="2" fill="#9D755D"/>
<text x="764" y="666" font-family="Arial, sans-serif" font-size="13" fill="#333">qlearn</text>
</svg>